<?xml version="1.0" encoding="utf-8"?>
<svg viewBox="64 64 896 896"  xmlns="http://www.w3.org/2000/svg">
<path d="M512 64C264.6 64 64 264.6 64 512s200.6 448 448 448 448-200.6 448-448S759.4 64 512 64zm0 820c-205.4 0-372-166.6-372-372s166.6-372 372-372 372 166.6 372 372-166.6 372-372 372z"/>
  <path 
  d="M6.79289 3.5L10.8762 7.58333L6.79289 11.6667H5.70711L9.43689 7.93689L9.79044 7.58333L9.43689 7.22978L5.70711 3.5L6.79289 3.5Z" 
  transform="matrix(1, 0, 0, 1, 401.394836, 186.721344)" 
  />
</svg>