<?xml version="1.0" encoding="utf-8"?>
<svg viewBox="0 0 15 15" xmlns="http://www.w3.org/2000/svg">
  <path d="M 7.5 0 C 3.359 0 0 3.358 0 7.5 C 0 11.642 3.359 15 7.5 15 C 11.641 15 15 11.642 15 7.5 C 15 3.358 11.641 0 7.5 0 Z M 7.5 13.727 C 4.062 13.727 1.273 10.938 1.273 7.5 C 1.273 4.061 4.062 1.272 7.5 1.272 C 10.938 1.272 13.728 4.061 13.728 7.5 C 13.728 10.938 10.938 13.727 7.5 13.727 Z" style=""/>
  <path d="M 7.3 3.3 L 11.4 7.4 L 7.3 11.4 L 5.298 11.446 L 9.028 7.716 L 9.382 7.362 L 9.028 7.009 L 5.298 3.279 L 7.3 3.3 Z"/>
</svg>